<svg xmlns="http://www.w3.org/2000/svg"  viewBox="0 0 100 100" width="100px" height="100px"><path d="M65.281,99c-0.979,0-1.961-0.226-2.842-0.654 c-1.703-0.829-2.956-2.352-3.44-4.179L57.494,88.5H45.287l-1.504,5.667c-0.484,1.827-1.737,3.349-3.437,4.177 C39.461,98.774,38.479,99,37.5,99c-0.881,0-1.74-0.176-2.552-0.522l-7.009-3.003c-2.783-1.194-4.308-4.112-3.863-6.975h-8.45 c-2.315,0-4.473-1.246-5.63-3.251c-1.157-2.002-1.157-4.495,0.002-6.5l10.698-18.53c-5.239-4.141-7.296-10.381-7.665-14.071 c-0.357-3.566,2.254-6.758,5.82-7.115C19.075,39.01,19.287,39,19.499,39c3.35,0,6.13,2.513,6.468,5.844 c0.012,0.098,0.263,2.023,1.447,3.74l11.817-20.467C37.3,26.988,36,24.893,36,22.5c0-3.068,2.137-5.646,5-6.325V11.5 C41,7.916,43.916,5,47.5,5h9c3.584,0,6.5,2.916,6.5,6.5v4.675c2.863,0.679,5,3.257,5,6.325c0,2.393-2.3,5.488-4.231,6.617 l11.952,20.701c1.338-1.774,2.615-4.887,2.631-5.021c0.347-3.293,3.122-5.796,6.454-5.796c0.232,0,0.466,0.013,0.702,0.038 c3.525,0.362,6.129,3.551,5.774,7.106c-0.377,3.773-3.144,10.776-8.531,14.904l10.597,18.355c1.158,2.004,1.447,4.694-0.001,6.502 c-1.605,2.004-3.729,2.594-6.695,2.594h-7.948c0.445,2.863-1.08,5.781-3.862,6.974l-7.001,3C67.021,98.825,66.162,99,65.281,99z" opacity=".35"/><path fill="#f2f2f2" d="M63.281,97c-0.979,0-1.961-0.226-2.842-0.654c-1.703-0.829-2.956-2.352-3.44-4.179L55.494,86.5 H43.287l-1.504,5.667c-0.484,1.827-1.737,3.349-3.437,4.177C37.461,96.774,36.479,97,35.5,97c-0.881,0-1.74-0.176-2.552-0.522 l-7.009-3.003c-2.783-1.194-4.308-4.112-3.863-6.975h-8.45c-2.315,0-4.473-1.246-5.63-3.251c-1.157-2.002-1.157-4.495,0.002-6.5 l10.698-18.53c-5.239-4.141-7.296-10.381-7.665-14.071c-0.357-3.566,2.254-6.758,5.82-7.115C17.075,37.01,17.287,37,17.499,37 c3.35,0,6.13,2.513,6.468,5.844c0.012,0.098,0.263,2.023,1.447,3.74l11.817-20.467C35.3,24.988,34,22.893,34,20.5 c0-3.068,2.137-5.646,5-6.325V9.5C39,5.916,41.916,3,45.5,3h9C58.084,3,61,5.916,61,9.5v4.675c2.863,0.679,5,3.257,5,6.325 c0,2.393-1.3,4.488-3.231,5.617l11.952,20.701c1.338-1.774,1.615-3.887,1.631-4.021c0.347-3.293,3.122-5.796,6.454-5.796 c0.232,0,0.466,0.013,0.702,0.038c3.525,0.362,6.129,3.551,5.774,7.106c-0.377,3.773-2.49,10.122-7.876,14.25L92.002,76.75 c1.158,2.004,1.158,4.496-0.001,6.502c-1.155,2.002-3.312,3.248-5.628,3.248h-9.669c0.445,2.863-1.08,5.781-3.862,6.974l-7.001,3 C65.021,96.825,64.162,97,63.281,97z"/><polygon fill="#ffe385" points="50,80 86.373,80 68.187,48.5 50,17 31.813,48.5 13.627,80"/><path fill="#f9b84f" d="M81,71l-1-3H61v-7h14l-1-3H26l-1,3h14v7H21l-1,3h10v9h3v-9h15.5v9h3v-9H67v9h3v-9H81z M42,61h16v7 H42V61z"/><polygon fill="none" stroke="#40396e" stroke-linecap="round" stroke-linejoin="round" stroke-miterlimit="10" stroke-width="3" points="50,80 86.373,80 68.187,48.5 50,17 31.813,48.5 13.627,80"/><rect width="9" height="11" x="45.5" y="9.5" fill="#9aa2e6"/><rect width="9" height="11" x="45.5" y="9.5" fill="none" stroke="#40396e" stroke-linecap="round" stroke-linejoin="round" stroke-miterlimit="10" stroke-width="3"/><line x1="40.5" x2="59.5" y1="20.5" y2="20.5" fill="none" stroke="#40396e" stroke-linecap="round" stroke-linejoin="round" stroke-miterlimit="10" stroke-width="3"/><path fill="none" stroke="#40396e" stroke-linecap="round" stroke-linejoin="round" stroke-miterlimit="10" stroke-width="3" d="M17.5,43.5c0,0,1,10,10.313,12"/><path fill="none" stroke="#40396e" stroke-linecap="round" stroke-linejoin="round" stroke-miterlimit="10" stroke-width="3" d="M82.813,43.5c0,0-1,10-10.313,12"/><polyline fill="none" stroke="#40396e" stroke-linecap="round" stroke-linejoin="round" stroke-miterlimit="10" stroke-width="3" points="38.281,80.022 35.5,90.5 28.5,87.5"/><polyline fill="none" stroke="#40396e" stroke-linecap="round" stroke-linejoin="round" stroke-miterlimit="10" stroke-width="3" points="60.5,80.022 63.281,90.5 70.281,87.5"/><path fill="#fff" d="M61,45.5c0,0-4.925,7.5-11,7.5s-11-7.5-11-7.5S43.925,38,50,38S61,45.5,61,45.5z"/><path fill="#40396e" d="M52,45.5c0,3.038-2,5.5-2,5.5s-2-2.462-2-5.5s2-5.5,2-5.5S52,42.462,52,45.5z"/><polygon fill="#40396e" points="49,61 42,64 42,55 49,58"/><polygon fill="#40396e" points="51,61 58,64 58,55 51,58"/><rect width="4" height="3" x="48" y="58" fill="#40396e"/></svg>